<svg xmlns="http://www.w3.org/2000/svg" xmlns:xlink="http://www.w3.org/1999/xlink" contentStyleType="text/css" height="667px" preserveAspectRatio="none" style="width:1175px;height:667px;background:#FFFFFF;" version="1.1" viewBox="0 0 1175 667" width="1175px" zoomAndPan="magnify"><defs/><g><line style="stroke:#181818;stroke-width:0.5;stroke-dasharray:5.0,5.0;" x1="78" x2="78" y1="70.0679" y2="585.9521"/><line style="stroke:#181818;stroke-width:0.5;stroke-dasharray:5.0,5.0;" x1="303" x2="303" y1="70.0679" y2="585.9521"/><line style="stroke:#181818;stroke-width:0.5;stroke-dasharray:5.0,5.0;" x1="475" x2="475" y1="70.0679" y2="585.9521"/><line style="stroke:#181818;stroke-width:0.5;stroke-dasharray:5.0,5.0;" x1="686" x2="686" y1="70.0679" y2="585.9521"/><line style="stroke:#181818;stroke-width:0.5;stroke-dasharray:5.0,5.0;" x1="876" x2="876" y1="70.0679" y2="585.9521"/><line style="stroke:#181818;stroke-width:0.5;stroke-dasharray:5.0,5.0;" x1="1138" x2="1138" y1="70.0679" y2="585.9521"/><rect fill="#E2E2F0" height="52.1358" rx="2.5" ry="2.5" style="stroke:#181818;stroke-width:0.5;" width="146" x="5" y="16.9321"/><text fill="#000000" font-family="sans-serif" font-size="14" lengthAdjust="spacing" textLength="107" x="24.5" y="38.898">Vue Component</text><text fill="#000000" font-family="sans-serif" font-size="14" lengthAdjust="spacing" textLength="132" x="12" y="57.9659">(MemberDetail.vue)</text><rect fill="#E2E2F0" height="52.1358" rx="2.5" ry="2.5" style="stroke:#181818;stroke-width:0.5;" width="146" x="5" y="584.9521"/><text fill="#000000" font-family="sans-serif" font-size="14" lengthAdjust="spacing" textLength="107" x="24.5" y="606.9181">Vue Component</text><text fill="#000000" font-family="sans-serif" font-size="14" lengthAdjust="spacing" textLength="132" x="12" y="625.986">(MemberDetail.vue)</text><rect fill="#E2E2F0" height="52.1358" rx="2.5" ry="2.5" style="stroke:#181818;stroke-width:0.5;" width="142" x="232" y="16.9321"/><text fill="#000000" font-family="sans-serif" font-size="14" lengthAdjust="spacing" textLength="65" x="270.5" y="38.898">API Client</text><text fill="#000000" font-family="sans-serif" font-size="14" lengthAdjust="spacing" textLength="128" x="239" y="57.9659">(MemberService.js)</text><rect fill="#E2E2F0" height="52.1358" rx="2.5" ry="2.5" style="stroke:#181818;stroke-width:0.5;" width="142" x="232" y="584.9521"/><text fill="#000000" font-family="sans-serif" font-size="14" lengthAdjust="spacing" textLength="65" x="270.5" y="606.9181">API Client</text><text fill="#000000" font-family="sans-serif" font-size="14" lengthAdjust="spacing" textLength="128" x="239" y="625.986">(MemberService.js)</text><rect fill="#E2E2F0" height="52.1358" rx="2.5" ry="2.5" style="stroke:#181818;stroke-width:0.5;" width="146" x="402" y="16.9321"/><text fill="#000000" font-family="sans-serif" font-size="14" lengthAdjust="spacing" textLength="67" x="441.5" y="38.898">Controller</text><text fill="#000000" font-family="sans-serif" font-size="14" lengthAdjust="spacing" textLength="132" x="409" y="57.9659">(MemberController)</text><rect fill="#E2E2F0" height="52.1358" rx="2.5" ry="2.5" style="stroke:#181818;stroke-width:0.5;" width="146" x="402" y="584.9521"/><text fill="#000000" font-family="sans-serif" font-size="14" lengthAdjust="spacing" textLength="67" x="441.5" y="606.9181">Controller</text><text fill="#000000" font-family="sans-serif" font-size="14" lengthAdjust="spacing" textLength="132" x="409" y="625.986">(MemberController)</text><rect fill="#E2E2F0" height="52.1358" rx="2.5" ry="2.5" style="stroke:#181818;stroke-width:0.5;" width="150" x="611" y="16.9321"/><text fill="#000000" font-family="sans-serif" font-size="14" lengthAdjust="spacing" textLength="48" x="662" y="38.898">Service</text><text fill="#000000" font-family="sans-serif" font-size="14" lengthAdjust="spacing" textLength="136" x="618" y="57.9659">(GetMemberService)</text><rect fill="#E2E2F0" height="52.1358" rx="2.5" ry="2.5" style="stroke:#181818;stroke-width:0.5;" width="150" x="611" y="584.9521"/><text fill="#000000" font-family="sans-serif" font-size="14" lengthAdjust="spacing" textLength="48" x="662" y="606.9181">Service</text><text fill="#000000" font-family="sans-serif" font-size="14" lengthAdjust="spacing" textLength="136" x="618" y="625.986">(GetMemberService)</text><rect fill="#E2E2F0" height="52.1358" rx="2.5" ry="2.5" style="stroke:#181818;stroke-width:0.5;" width="210" x="771" y="16.9321"/><text fill="#000000" font-family="sans-serif" font-size="14" lengthAdjust="spacing" textLength="71" x="840.5" y="38.898">Repository</text><text fill="#000000" font-family="sans-serif" font-size="14" lengthAdjust="spacing" textLength="196" x="778" y="57.9659">(EloquentMemberRepository)</text><rect fill="#E2E2F0" height="52.1358" rx="2.5" ry="2.5" style="stroke:#181818;stroke-width:0.5;" width="210" x="771" y="584.9521"/><text fill="#000000" font-family="sans-serif" font-size="14" lengthAdjust="spacing" textLength="71" x="840.5" y="606.9181">Repository</text><text fill="#000000" font-family="sans-serif" font-size="14" lengthAdjust="spacing" textLength="196" x="778" y="625.986">(EloquentMemberRepository)</text><text fill="#000000" font-family="sans-serif" font-size="14" lengthAdjust="spacing" textLength="66" x="1102" y="65.9659">SQLite DB</text><path d="M1120,15 C1120,5 1138,5 1138,5 C1138,5 1156,5 1156,15 L1156,41 C1156,51 1138,51 1138,51 C1138,51 1120,51 1120,41 L1120,15 " fill="#E2E2F0" style="stroke:#181818;stroke-width:1.5;"/><path d="M1120,15 C1120,25 1138,25 1138,25 C1138,25 1156,25 1156,15 " fill="none" style="stroke:#181818;stroke-width:1.5;"/><text fill="#000000" font-family="sans-serif" font-size="14" lengthAdjust="spacing" textLength="66" x="1102" y="599.9181">SQLite DB</text><path d="M1120,614.0201 C1120,604.0201 1138,604.0201 1138,604.0201 C1138,604.0201 1156,604.0201 1156,614.0201 L1156,640.0201 C1156,650.0201 1138,650.0201 1138,650.0201 C1138,650.0201 1120,650.0201 1120,640.0201 L1120,614.0201 " fill="#E2E2F0" style="stroke:#181818;stroke-width:1.5;"/><path d="M1120,614.0201 C1120,624.0201 1138,624.0201 1138,624.0201 C1138,624.0201 1156,624.0201 1156,614.0201 " fill="none" style="stroke:#181818;stroke-width:1.5;"/><line style="stroke:#181818;stroke-width:1.0;" x1="78" x2="120" y1="103.7739" y2="103.7739"/><line style="stroke:#181818;stroke-width:1.0;" x1="120" x2="120" y1="103.7739" y2="116.7739"/><line style="stroke:#181818;stroke-width:1.0;" x1="79" x2="120" y1="116.7739" y2="116.7739"/><polygon fill="#181818" points="89,112.7739,79,116.7739,89,120.7739,85,116.7739" style="stroke:#181818;stroke-width:1.0;"/><text fill="#000000" font-family="sans-serif" font-size="13" font-weight="bold" lengthAdjust="spacing" textLength="7" x="85" y="97.9649">1</text><text fill="#000000" font-family="sans-serif" font-size="13" lengthAdjust="spacing" textLength="200" x="96" y="97.9649">onMounted (reads ID from route)</text><polygon fill="#181818" points="291,144.4799,301,148.4799,291,152.4799,295,148.4799" style="stroke:#181818;stroke-width:1.0;"/><line style="stroke:#181818;stroke-width:1.0;" x1="78" x2="297" y1="148.4799" y2="148.4799"/><text fill="#000000" font-family="sans-serif" font-size="13" font-weight="bold" lengthAdjust="spacing" textLength="7" x="85" y="142.6709">2</text><text fill="#000000" font-family="sans-serif" font-size="13" lengthAdjust="spacing" textLength="90" x="96" y="142.6709">getMember(id)</text><polygon fill="#181818" points="463,176.186,473,180.186,463,184.186,467,180.186" style="stroke:#181818;stroke-width:1.0;"/><line style="stroke:#181818;stroke-width:1.0;" x1="303" x2="469" y1="180.186" y2="180.186"/><text fill="#000000" font-family="sans-serif" font-size="13" font-weight="bold" lengthAdjust="spacing" textLength="7" x="310" y="174.377">3</text><text fill="#000000" font-family="sans-serif" font-size="13" lengthAdjust="spacing" textLength="137" x="321" y="174.377">GET /api/members/{id}</text><polygon fill="#181818" points="674,207.892,684,211.892,674,215.892,678,211.892" style="stroke:#181818;stroke-width:1.0;"/><line style="stroke:#181818;stroke-width:1.0;" x1="475" x2="680" y1="211.892" y2="211.892"/><text fill="#000000" font-family="sans-serif" font-size="13" font-weight="bold" lengthAdjust="spacing" textLength="7" x="482" y="206.083">4</text><text fill="#000000" font-family="sans-serif" font-size="13" lengthAdjust="spacing" textLength="66" x="493" y="206.083">execute(id)</text><polygon fill="#181818" points="864,239.598,874,243.598,864,247.598,868,243.598" style="stroke:#181818;stroke-width:1.0;"/><line style="stroke:#181818;stroke-width:1.0;" x1="686" x2="870" y1="243.598" y2="243.598"/><text fill="#000000" font-family="sans-serif" font-size="13" font-weight="bold" lengthAdjust="spacing" textLength="7" x="693" y="237.789">5</text><text fill="#000000" font-family="sans-serif" font-size="13" lengthAdjust="spacing" textLength="69" x="704" y="237.789">findById(id)</text><polygon fill="#181818" points="1126,271.304,1136,275.304,1126,279.304,1130,275.304" style="stroke:#181818;stroke-width:1.0;"/><line style="stroke:#181818;stroke-width:1.0;" x1="876" x2="1132" y1="275.304" y2="275.304"/><text fill="#000000" font-family="sans-serif" font-size="13" font-weight="bold" lengthAdjust="spacing" textLength="7" x="883" y="269.495">6</text><text fill="#000000" font-family="sans-serif" font-size="13" lengthAdjust="spacing" textLength="227" x="894" y="269.495">SELECT * FROM members WHERE id=?</text><polygon fill="#181818" points="887,303.01,877,307.01,887,311.01,883,307.01" style="stroke:#181818;stroke-width:1.0;"/><line style="stroke:#181818;stroke-width:1.0;stroke-dasharray:2.0,2.0;" x1="881" x2="1137" y1="307.01" y2="307.01"/><text fill="#000000" font-family="sans-serif" font-size="13" font-weight="bold" lengthAdjust="spacing" textLength="7" x="893" y="301.201">7</text><text fill="#000000" font-family="sans-serif" font-size="13" lengthAdjust="spacing" textLength="85" x="904" y="301.201">Raw Data Row</text><line style="stroke:#181818;stroke-width:1.0;" x1="876" x2="918" y1="338.716" y2="338.716"/><line style="stroke:#181818;stroke-width:1.0;" x1="918" x2="918" y1="338.716" y2="351.716"/><line style="stroke:#181818;stroke-width:1.0;" x1="877" x2="918" y1="351.716" y2="351.716"/><polygon fill="#181818" points="887,347.716,877,351.716,887,355.716,883,351.716" style="stroke:#181818;stroke-width:1.0;"/><text fill="#000000" font-family="sans-serif" font-size="13" font-weight="bold" lengthAdjust="spacing" textLength="7" x="883" y="332.907">8</text><text fill="#000000" font-family="sans-serif" font-size="13" lengthAdjust="spacing" textLength="232" x="894" y="332.907">Reconstitutes Domain Entity (Member)</text><polygon fill="#181818" points="697,379.4221,687,383.4221,697,387.4221,693,383.4221" style="stroke:#181818;stroke-width:1.0;"/><line style="stroke:#181818;stroke-width:1.0;stroke-dasharray:2.0,2.0;" x1="691" x2="875" y1="383.4221" y2="383.4221"/><text fill="#000000" font-family="sans-serif" font-size="13" font-weight="bold" lengthAdjust="spacing" textLength="7" x="703" y="377.6131">9</text><text fill="#000000" font-family="sans-serif" font-size="13" lengthAdjust="spacing" textLength="85" x="714" y="377.6131">Returns Entity</text><polygon fill="#181818" points="486,411.1281,476,415.1281,486,419.1281,482,415.1281" style="stroke:#181818;stroke-width:1.0;"/><line style="stroke:#181818;stroke-width:1.0;stroke-dasharray:2.0,2.0;" x1="480" x2="685" y1="415.1281" y2="415.1281"/><text fill="#000000" font-family="sans-serif" font-size="13" font-weight="bold" lengthAdjust="spacing" textLength="14" x="492" y="409.3191">10</text><text fill="#000000" font-family="sans-serif" font-size="13" lengthAdjust="spacing" textLength="85" x="510" y="409.3191">Returns Entity</text><line style="stroke:#181818;stroke-width:1.0;" x1="475" x2="517" y1="446.8341" y2="446.8341"/><line style="stroke:#181818;stroke-width:1.0;" x1="517" x2="517" y1="446.8341" y2="459.8341"/><line style="stroke:#181818;stroke-width:1.0;" x1="476" x2="517" y1="459.8341" y2="459.8341"/><polygon fill="#181818" points="486,455.8341,476,459.8341,486,463.8341,482,459.8341" style="stroke:#181818;stroke-width:1.0;"/><text fill="#000000" font-family="sans-serif" font-size="13" font-weight="bold" lengthAdjust="spacing" textLength="14" x="482" y="441.0251">11</text><text fill="#000000" font-family="sans-serif" font-size="13" lengthAdjust="spacing" textLength="179" x="500" y="441.0251">Formats via MemberResource</text><polygon fill="#181818" points="314,487.5401,304,491.5401,314,495.5401,310,491.5401" style="stroke:#181818;stroke-width:1.0;"/><line style="stroke:#181818;stroke-width:1.0;" x1="308" x2="474" y1="491.5401" y2="491.5401"/><text fill="#000000" font-family="sans-serif" font-size="13" font-weight="bold" lengthAdjust="spacing" textLength="14" x="320" y="485.7311">12</text><text fill="#000000" font-family="sans-serif" font-size="13" lengthAdjust="spacing" textLength="115" x="338" y="485.7311">200 OK (JSON Data)</text><polygon fill="#181818" points="89,519.2461,79,523.2461,89,527.2461,85,523.2461" style="stroke:#181818;stroke-width:1.0;"/><line style="stroke:#181818;stroke-width:1.0;stroke-dasharray:2.0,2.0;" x1="83" x2="302" y1="523.2461" y2="523.2461"/><text fill="#000000" font-family="sans-serif" font-size="13" font-weight="bold" lengthAdjust="spacing" textLength="14" x="95" y="517.4371">13</text><text fill="#000000" font-family="sans-serif" font-size="13" lengthAdjust="spacing" textLength="77" x="113" y="517.4371">Data Binding</text><line style="stroke:#181818;stroke-width:1.0;" x1="78" x2="120" y1="554.9521" y2="554.9521"/><line style="stroke:#181818;stroke-width:1.0;" x1="120" x2="120" y1="554.9521" y2="567.9521"/><line style="stroke:#181818;stroke-width:1.0;" x1="79" x2="120" y1="567.9521" y2="567.9521"/><polygon fill="#181818" points="89,563.9521,79,567.9521,89,571.9521,85,567.9521" style="stroke:#181818;stroke-width:1.0;"/><text fill="#000000" font-family="sans-serif" font-size="13" font-weight="bold" lengthAdjust="spacing" textLength="14" x="85" y="549.1431">14</text><text fill="#000000" font-family="sans-serif" font-size="13" lengthAdjust="spacing" textLength="85" x="103" y="549.1431">Updates DOM</text><!--SRC=[NP9DJy9048Rl_HKJJs2Y68ycQYmjMXNH8dhnij3Hh6btwdwWnFZVdRPRIZdklEypdokS9UMA9UgW5DhAbIo5id3muX36L9IaKDatDPXYvOdG2faVhnqE3q0OM2HzwkenWN4kTv4vwhLSuV6dQP16xcDZKbPJdgFUObt8Ozjt7_NfcRj6swlOSFxHXr8ioKXBUiDSdDENuvOQk9CQlde7cR1YAGnokQTxQH6Yi1QZC0WM2HnTy2BW34XDoIcB6GmqYin04i6xfW8qEOj3RsqMmFQFjk61p8Q13rU6xQXikewVOIHAEIfggndzokmlsB4mu6TaD_xWYalL2Tie6weXM7sNAWitILRBTOorA6Hb7j_7usSuX4awcu8l1QytSHg3pCul0tOTTObIyGqHxmHI-jucQZLSaJ9MMkw3DqI5a0fYnO4D-DksnNkjfsYTLiPRk-xt5xBdws-YvvoGBeGri9O2skCQSff_mnxLNkJqv0HcTp2udSyUwW6xixGthiSEUP5IVUpUVb7o9wa6dat_0G00]--></g></svg>