<svg xmlns="http://www.w3.org/2000/svg" xmlns:xlink="http://www.w3.org/1999/xlink" contentStyleType="text/css" height="477px" preserveAspectRatio="none" style="width:817px;height:477px;background:#FFFFFF;" version="1.1" viewBox="0 0 817 477" width="817px" zoomAndPan="magnify"><defs/><g><!--cluster Members Bounded Context--><g id="cluster_Members Bounded Context"><rect fill="none" height="464" rx="2.5" ry="2.5" style="stroke:#181818;stroke-width:1.0;" width="259" x="150" y="7"/><text fill="#000000" font-family="sans-serif" font-size="14" font-weight="bold" lengthAdjust="spacing" textLength="190" x="184.5" y="23.9659">Members Bounded Context</text></g><g id="elem_UC1"><ellipse cx="279.379" cy="356.0758" fill="#F1F1F1" rx="98.379" ry="22.0758" style="stroke:#181818;stroke-width:0.5;"/><text fill="#000000" font-family="sans-serif" font-size="14" lengthAdjust="spacing" textLength="151" x="200.879" y="360.8088">Register New Member</text></g><g id="elem_UC2"><ellipse cx="279.505" cy="434.101" fill="#F1F1F1" rx="93.505" ry="21.101" style="stroke:#181818;stroke-width:0.5;"/><text fill="#000000" font-family="sans-serif" font-size="14" lengthAdjust="spacing" textLength="139" x="207.005" y="438.834">View Member Profile</text></g><g id="elem_UC3"><ellipse cx="279.6669" cy="171.1334" fill="#F1F1F1" rx="113.6669" ry="25.1334" style="stroke:#181818;stroke-width:0.5;"/><text fill="#000000" font-family="sans-serif" font-size="14" lengthAdjust="spacing" textLength="187" x="183.1669" y="175.8663">List Congregation Members</text></g><g id="elem_UC4"><ellipse cx="279.4886" cy="68.9977" fill="#F1F1F1" rx="105.4886" ry="23.4977" style="stroke:#181818;stroke-width:0.5;"/><text fill="#000000" font-family="sans-serif" font-size="14" lengthAdjust="spacing" textLength="168" x="192.4886" y="73.7307">Filter Members by Status</text></g><g id="elem_UC5"><ellipse cx="279.2656" cy="273.8531" fill="#F1F1F1" rx="109.7656" ry="24.3531" style="stroke:#181818;stroke-width:0.5;"/><text fill="#000000" font-family="sans-serif" font-size="14" lengthAdjust="spacing" textLength="178" x="187.2656" y="278.5861">Search Members by Name</text></g><!--entity Admin--><g id="elem_Admin"><ellipse cx="54.5" cy="243" fill="#F1F1F1" rx="8" ry="8" style="stroke:#181818;stroke-width:0.5;"/><path d="M54.5,251 L54.5,278 M41.5,259 L67.5,259 M54.5,278 L41.5,293 M54.5,278 L67.5,293 " fill="none" style="stroke:#181818;stroke-width:0.5;"/><text fill="#000000" font-family="sans-serif" font-size="14" lengthAdjust="spacing" textLength="97" x="6" y="309.4659">Church Admin</text></g><g id="elem_GMN16"><path d="M488,332.5 L488,351.41 L378.41,355.72 L488,359.41 L488,377.912 A0,0 0 0 0 488,377.912 L778,377.912 A0,0 0 0 0 778,377.912 L778,342.5 L768,332.5 L488,332.5 A0,0 0 0 0 488,332.5 " fill="#FEFFDD" style="stroke:#181818;stroke-width:0.5;"/><path d="M768,332.5 L768,342.5 L778,342.5 L768,332.5 " fill="#FEFFDD" style="stroke:#181818;stroke-width:0.5;"/><text fill="#000000" font-family="sans-serif" font-size="13" lengthAdjust="spacing" textLength="250" x="494" y="351.397">Validates phone numbers (Tanzanian/Intl)</text><text fill="#000000" font-family="sans-serif" font-size="13" lengthAdjust="spacing" textLength="269" x="494" y="369.103">and sanitizes input via Domain Value Objects.</text></g><g id="elem_GMN19"><path d="M456,412.5 L456,430.5 L373.31,434.26 L456,438.5 L456,457.912 A0,0 0 0 0 456,457.912 L810,457.912 A0,0 0 0 0 810,457.912 L810,422.5 L800,412.5 L456,412.5 A0,0 0 0 0 456,412.5 " fill="#FEFFDD" style="stroke:#181818;stroke-width:0.5;"/><path d="M800,412.5 L800,422.5 L810,422.5 L800,412.5 " fill="#FEFFDD" style="stroke:#181818;stroke-width:0.5;"/><text fill="#000000" font-family="sans-serif" font-size="13" lengthAdjust="spacing" textLength="252" x="462" y="431.397">Fetches full details including Household ID</text><text fill="#000000" font-family="sans-serif" font-size="13" lengthAdjust="spacing" textLength="333" x="462" y="449.103">and parses employment statuses into readable formats.</text></g><!--link Admin to UC1--><g id="link_Admin_UC1"><path d="M103.36,299 C115.77,304.99 129.23,311.07 142,316 C165.04,324.9 185.1265,331.3169 208.1065,337.8169 " fill="none" id="Admin-to-UC1" style="stroke:#181818;stroke-width:1.0;"/><polygon fill="#181818" points="213.88,339.45,206.3085,333.1514,209.0688,338.0891,204.1311,340.8494,213.88,339.45" style="stroke:#181818;stroke-width:1.0;"/></g><!--link Admin to UC2--><g id="link_Admin_UC2"><path d="M74.81,313.76 C89.69,340.42 112.67,374.31 142,395 C159.83,407.57 175.8583,414.5063 196.7683,420.3063 " fill="none" id="Admin-to-UC2" style="stroke:#181818;stroke-width:1.0;"/><polygon fill="#181818" points="202.55,421.91,194.9466,415.6499,197.7319,420.5736,192.8083,423.3589,202.55,421.91" style="stroke:#181818;stroke-width:1.0;"/></g><!--link Admin to UC3--><g id="link_Admin_UC3"><path d="M103.41,250.4 C115.93,244.33 129.44,237.85 142,232 C170.11,218.9 196.2323,207.1559 221.9523,195.7859 " fill="none" id="Admin-to-UC3" style="stroke:#181818;stroke-width:1.0;"/><polygon fill="#181818" points="227.44,193.36,217.5912,193.3404,222.8669,195.3816,220.8257,200.6574,227.44,193.36" style="stroke:#181818;stroke-width:1.0;"/></g><!--link Admin to UC4--><g id="link_Admin_UC4"><path d="M70.79,234.33 C85,202.01 108.94,157.11 142,128 C162.44,110 183.6116,98.9521 208.0216,89.6721 " fill="none" id="Admin-to-UC4" style="stroke:#181818;stroke-width:1.0;"/><polygon fill="#181818" points="213.63,87.54,203.796,86.9993,208.9563,89.3168,206.6389,94.4771,213.63,87.54" style="stroke:#181818;stroke-width:1.0;"/></g><!--link Admin to UC5--><g id="link_Admin_UC5"><path d="M103.07,274 C122.51,274 139.87,274 163.11,274 " fill="none" id="Admin-to-UC5" style="stroke:#181818;stroke-width:1.0;"/><polygon fill="#181818" points="169.11,274,160.11,270,164.11,274,160.11,278,169.11,274" style="stroke:#181818;stroke-width:1.0;"/></g><!--link UC4 to UC3--><g id="link_UC4_UC3"><path d="M279.5,92.52 C279.5,108.46 279.5,123.5 279.5,139.79 " fill="none" id="UC4-to-UC3" style="stroke:#181818;stroke-width:1.0;stroke-dasharray:7.0,7.0;"/><polygon fill="#181818" points="279.5,145.79,283.5,136.79,279.5,140.79,275.5,136.79,279.5,145.79" style="stroke:#181818;stroke-width:1.0;"/><text fill="#000000" font-family="sans-serif" font-size="13" lengthAdjust="spacing" textLength="62" x="236" y="124.647">&#171;extends&#187;</text></g><!--link UC5 to UC3--><g id="link_UC5_UC3"><path d="M279.5,249.33 C279.5,233.26 279.5,218.36 279.5,202.19 " fill="none" id="UC5-to-UC3" style="stroke:#181818;stroke-width:1.0;stroke-dasharray:7.0,7.0;"/><polygon fill="#181818" points="279.5,196.19,275.5,205.19,279.5,201.19,283.5,205.19,279.5,196.19" style="stroke:#181818;stroke-width:1.0;"/><text fill="#000000" font-family="sans-serif" font-size="13" lengthAdjust="spacing" textLength="62" x="236" y="228.147">&#171;extends&#187;</text></g><!--SRC=[RPB1Rjim38RlUWeYf-sG3akRIr44s58KAx1sHRFrpbYqhKMc0edgcXHzzr6EKpZORgBuaVylKfvg0GaGNTCAM1Uf4XVOf8tZBKRiO8lL1XjQoSuJb3HouyaOh2H4c2pR7AiMljZEyGGm7Kx6l9CmkQDkJJ71rv3PaeLbOA4NcS2h0SY9AanAFLBZab24U_e3XvA-tw_bvp7svDxJy113xJmDs6oCVTTUHQY9r61vqL2J1lXy3DyuNuIFFjSxM0bAFh8NOtP5MDuxOk-nErgOcpTZ-W70TBhehO-ZsKbqVX9Td4HpO_GApdeEBk7gIWT6RDDYeOdv_nE6Wz2moL0FWtj2xomA9TYsWGau7un_-8cyHtR8dsvP_4T5aIqalHAtLrptdmMU7S9rw52TQQTCy6FzMpURpeoAGX7yLxOiueQaQhLBdRq7IuBEbvQLpzPn0z-23hGDtiBjzQ2ilorf0NLR7tOTiK3gbz1RAJ-KqE9Q_rCTOeTZ1ty1]--></g></svg>