<?xml version="1.0" encoding="us-ascii" standalone="no"?><svg xmlns="http://www.w3.org/2000/svg" xmlns:xlink="http://www.w3.org/1999/xlink" contentStyleType="text/css" height="840px" preserveAspectRatio="none" style="width:1274px;height:840px;background:#FFFFFF;" version="1.1" viewBox="0 0 1274 840" width="1274px" zoomAndPan="magnify"><defs/><g><rect fill="none" height="417.1601" style="stroke:#000000;stroke-width:1.5;" width="1191" x="10" y="323.01"/><line style="stroke:#181818;stroke-width:0.5;stroke-dasharray:5.0,5.0;" x1="38" x2="38" y1="84.0679" y2="757.1701"/><line style="stroke:#181818;stroke-width:0.5;stroke-dasharray:5.0,5.0;" x1="235.5" x2="235.5" y1="84.0679" y2="757.1701"/><line style="stroke:#181818;stroke-width:0.5;stroke-dasharray:5.0,5.0;" x1="388.5" x2="388.5" y1="84.0679" y2="757.1701"/><line style="stroke:#181818;stroke-width:0.5;stroke-dasharray:5.0,5.0;" x1="568.5" x2="568.5" y1="84.0679" y2="757.1701"/><line style="stroke:#181818;stroke-width:0.5;stroke-dasharray:5.0,5.0;" x1="799.5" x2="799.5" y1="84.0679" y2="757.1701"/><line style="stroke:#181818;stroke-width:0.5;stroke-dasharray:5.0,5.0;" x1="965.5" x2="965.5" y1="84.0679" y2="757.1701"/><line style="stroke:#181818;stroke-width:0.5;stroke-dasharray:5.0,5.0;" x1="1139" x2="1139" y1="84.0679" y2="757.1701"/><line style="stroke:#181818;stroke-width:0.5;stroke-dasharray:5.0,5.0;" x1="1237" x2="1237" y1="84.0679" y2="757.1701"/><text fill="#000000" font-family="sans-serif" font-size="14" lengthAdjust="spacing" textLength="31" x="20" y="79.9659">User</text><ellipse cx="38.5" cy="13.5" fill="#E2E2F0" rx="8" ry="8" style="stroke:#181818;stroke-width:0.5;"/><path d="M38.5,21.5 L38.5,48.5 M25.5,29.5 L51.5,29.5 M38.5,48.5 L25.5,63.5 M38.5,48.5 L51.5,63.5 " fill="none" style="stroke:#181818;stroke-width:0.5;"/><text fill="#000000" font-family="sans-serif" font-size="14" lengthAdjust="spacing" textLength="31" x="20" y="771.1361">User</text><ellipse cx="38.5" cy="783.7381" fill="#E2E2F0" rx="8" ry="8" style="stroke:#181818;stroke-width:0.5;"/><path d="M38.5,791.7381 L38.5,818.7381 M25.5,799.7381 L51.5,799.7381 M38.5,818.7381 L25.5,833.7381 M38.5,818.7381 L51.5,833.7381 " fill="none" style="stroke:#181818;stroke-width:0.5;"/><rect fill="#E2E2F0" height="52.1358" rx="2.5" ry="2.5" style="stroke:#181818;stroke-width:0.5;" width="122" x="174.5" y="30.9321"/><text fill="#000000" font-family="sans-serif" font-size="14" lengthAdjust="spacing" textLength="107" x="182" y="52.898">Vue Component</text><text fill="#000000" font-family="sans-serif" font-size="14" lengthAdjust="spacing" textLength="108" x="181.5" y="71.9659">(ZoneDetail.vue)</text><rect fill="#E2E2F0" height="52.1358" rx="2.5" ry="2.5" style="stroke:#181818;stroke-width:0.5;" width="122" x="174.5" y="756.1701"/><text fill="#000000" font-family="sans-serif" font-size="14" lengthAdjust="spacing" textLength="107" x="182" y="778.1361">Vue Component</text><text fill="#000000" font-family="sans-serif" font-size="14" lengthAdjust="spacing" textLength="108" x="181.5" y="797.204">(ZoneDetail.vue)</text><rect fill="#E2E2F0" height="52.1358" rx="2.5" ry="2.5" style="stroke:#181818;stroke-width:0.5;" width="118" x="329.5" y="30.9321"/><text fill="#000000" font-family="sans-serif" font-size="14" lengthAdjust="spacing" textLength="78" x="349.5" y="52.898">Axios Client</text><text fill="#000000" font-family="sans-serif" font-size="14" lengthAdjust="spacing" textLength="104" x="336.5" y="71.9659">(ZoneService.js)</text><rect fill="#E2E2F0" height="52.1358" rx="2.5" ry="2.5" style="stroke:#181818;stroke-width:0.5;" width="118" x="329.5" y="756.1701"/><text fill="#000000" font-family="sans-serif" font-size="14" lengthAdjust="spacing" textLength="78" x="349.5" y="778.1361">Axios Client</text><text fill="#000000" font-family="sans-serif" font-size="14" lengthAdjust="spacing" textLength="104" x="336.5" y="797.204">(ZoneService.js)</text><rect fill="#E2E2F0" height="52.1358" rx="2.5" ry="2.5" style="stroke:#181818;stroke-width:0.5;" width="122" x="507.5" y="30.9321"/><text fill="#000000" font-family="sans-serif" font-size="14" lengthAdjust="spacing" textLength="67" x="535" y="52.898">Controller</text><text fill="#000000" font-family="sans-serif" font-size="14" lengthAdjust="spacing" textLength="108" x="514.5" y="71.9659">(ZoneController)</text><rect fill="#E2E2F0" height="52.1358" rx="2.5" ry="2.5" style="stroke:#181818;stroke-width:0.5;" width="122" x="507.5" y="756.1701"/><text fill="#000000" font-family="sans-serif" font-size="14" lengthAdjust="spacing" textLength="67" x="535" y="778.1361">Controller</text><text fill="#000000" font-family="sans-serif" font-size="14" lengthAdjust="spacing" textLength="108" x="514.5" y="797.204">(ZoneController)</text><rect fill="#E2E2F0" height="52.1358" rx="2.5" ry="2.5" style="stroke:#181818;stroke-width:0.5;" width="126" x="736.5" y="30.9321"/><text fill="#000000" font-family="sans-serif" font-size="14" lengthAdjust="spacing" textLength="48" x="775.5" y="52.898">Service</text><text fill="#000000" font-family="sans-serif" font-size="14" lengthAdjust="spacing" textLength="112" x="743.5" y="71.9659">(GetZoneService)</text><rect fill="#E2E2F0" height="52.1358" rx="2.5" ry="2.5" style="stroke:#181818;stroke-width:0.5;" width="126" x="736.5" y="756.1701"/><text fill="#000000" font-family="sans-serif" font-size="14" lengthAdjust="spacing" textLength="48" x="775.5" y="778.1361">Service</text><text fill="#000000" font-family="sans-serif" font-size="14" lengthAdjust="spacing" textLength="112" x="743.5" y="797.204">(GetZoneService)</text><rect fill="#E2E2F0" height="52.1358" rx="2.5" ry="2.5" style="stroke:#181818;stroke-width:0.5;" width="186" x="872.5" y="30.9321"/><text fill="#000000" font-family="sans-serif" font-size="14" lengthAdjust="spacing" textLength="71" x="930" y="52.898">Repository</text><text fill="#000000" font-family="sans-serif" font-size="14" lengthAdjust="spacing" textLength="172" x="879.5" y="71.9659">(EloquentZoneRepository)</text><rect fill="#E2E2F0" height="52.1358" rx="2.5" ry="2.5" style="stroke:#181818;stroke-width:0.5;" width="186" x="872.5" y="756.1701"/><text fill="#000000" font-family="sans-serif" font-size="14" lengthAdjust="spacing" textLength="71" x="930" y="778.1361">Repository</text><text fill="#000000" font-family="sans-serif" font-size="14" lengthAdjust="spacing" textLength="172" x="879.5" y="797.204">(EloquentZoneRepository)</text><rect fill="#E2E2F0" height="52.1358" rx="2.5" ry="2.5" style="stroke:#181818;stroke-width:0.5;" width="103" x="1088" y="30.9321"/><text fill="#000000" font-family="sans-serif" font-size="14" lengthAdjust="spacing" textLength="48" x="1115.5" y="52.898">Factory</text><text fill="#000000" font-family="sans-serif" font-size="14" lengthAdjust="spacing" textLength="89" x="1095" y="71.9659">(ZoneFactory)</text><rect fill="#E2E2F0" height="52.1358" rx="2.5" ry="2.5" style="stroke:#181818;stroke-width:0.5;" width="103" x="1088" y="756.1701"/><text fill="#000000" font-family="sans-serif" font-size="14" lengthAdjust="spacing" textLength="48" x="1115.5" y="778.1361">Factory</text><text fill="#000000" font-family="sans-serif" font-size="14" lengthAdjust="spacing" textLength="89" x="1095" y="797.204">(ZoneFactory)</text><text fill="#000000" font-family="sans-serif" font-size="14" lengthAdjust="spacing" textLength="66" x="1201" y="79.9659">SQLite DB</text><path d="M1219,29 C1219,19 1237,19 1237,19 C1237,19 1255,19 1255,29 L1255,55 C1255,65 1237,65 1237,65 C1237,65 1219,65 1219,55 L1219,29 " fill="#E2E2F0" style="stroke:#181818;stroke-width:1.5;"/><path d="M1219,29 C1219,39 1237,39 1237,39 C1237,39 1255,39 1255,29 " fill="none" style="stroke:#181818;stroke-width:1.5;"/><text fill="#000000" font-family="sans-serif" font-size="14" lengthAdjust="spacing" textLength="66" x="1201" y="771.1361">SQLite DB</text><path d="M1219,785.2381 C1219,775.2381 1237,775.2381 1237,775.2381 C1237,775.2381 1255,775.2381 1255,785.2381 L1255,811.2381 C1255,821.2381 1237,821.2381 1237,821.2381 C1237,821.2381 1219,821.2381 1219,811.2381 L1219,785.2381 " fill="#E2E2F0" style="stroke:#181818;stroke-width:1.5;"/><path d="M1219,785.2381 C1219,795.2381 1237,795.2381 1237,795.2381 C1237,795.2381 1255,795.2381 1255,785.2381 " fill="none" style="stroke:#181818;stroke-width:1.5;"/><polygon fill="#181818" points="223.5,113.7739,233.5,117.7739,223.5,121.7739,227.5,117.7739" style="stroke:#181818;stroke-width:1.0;"/><line style="stroke:#181818;stroke-width:1.0;" x1="38.5" x2="229.5" y1="117.7739" y2="117.7739"/><text fill="#000000" font-family="sans-serif" font-size="13" font-weight="bold" lengthAdjust="spacing" textLength="7" x="45.5" y="111.9649">1</text><text fill="#000000" font-family="sans-serif" font-size="13" lengthAdjust="spacing" textLength="138" x="56.5" y="111.9649">Navigates to /zones/:id</text><polygon fill="#181818" points="376.5,145.4799,386.5,149.4799,376.5,153.4799,380.5,149.4799" style="stroke:#181818;stroke-width:1.0;"/><line style="stroke:#181818;stroke-width:1.0;" x1="235.5" x2="382.5" y1="149.4799" y2="149.4799"/><text fill="#000000" font-family="sans-serif" font-size="13" font-weight="bold" lengthAdjust="spacing" textLength="7" x="242.5" y="143.6709">2</text><text fill="#000000" font-family="sans-serif" font-size="13" lengthAdjust="spacing" textLength="66" x="253.5" y="143.6709">getById(id)</text><polygon fill="#181818" points="556.5,177.186,566.5,181.186,556.5,185.186,560.5,181.186" style="stroke:#181818;stroke-width:1.0;"/><line style="stroke:#181818;stroke-width:1.0;" x1="388.5" x2="562.5" y1="181.186" y2="181.186"/><text fill="#000000" font-family="sans-serif" font-size="13" font-weight="bold" lengthAdjust="spacing" textLength="7" x="395.5" y="175.377">3</text><text fill="#000000" font-family="sans-serif" font-size="13" lengthAdjust="spacing" textLength="115" x="406.5" y="175.377">GET /api/zones/{id}</text><polygon fill="#181818" points="787.5,208.892,797.5,212.892,787.5,216.892,791.5,212.892" style="stroke:#181818;stroke-width:1.0;"/><line style="stroke:#181818;stroke-width:1.0;" x1="568.5" x2="793.5" y1="212.892" y2="212.892"/><text fill="#000000" font-family="sans-serif" font-size="13" font-weight="bold" lengthAdjust="spacing" textLength="7" x="575.5" y="207.083">4</text><text fill="#000000" font-family="sans-serif" font-size="13" lengthAdjust="spacing" textLength="66" x="586.5" y="207.083">execute(id)</text><polygon fill="#181818" points="953.5,240.598,963.5,244.598,953.5,248.598,957.5,244.598" style="stroke:#181818;stroke-width:1.0;"/><line style="stroke:#181818;stroke-width:1.0;" x1="799.5" x2="959.5" y1="244.598" y2="244.598"/><text fill="#000000" font-family="sans-serif" font-size="13" font-weight="bold" lengthAdjust="spacing" textLength="7" x="806.5" y="238.789">5</text><text fill="#000000" font-family="sans-serif" font-size="13" lengthAdjust="spacing" textLength="69" x="817.5" y="238.789">findById(id)</text><polygon fill="#181818" points="1225,272.304,1235,276.304,1225,280.304,1229,276.304" style="stroke:#181818;stroke-width:1.0;"/><line style="stroke:#181818;stroke-width:1.0;" x1="965.5" x2="1231" y1="276.304" y2="276.304"/><text fill="#000000" font-family="sans-serif" font-size="13" font-weight="bold" lengthAdjust="spacing" textLength="7" x="972.5" y="270.495">6</text><text fill="#000000" font-family="sans-serif" font-size="13" lengthAdjust="spacing" textLength="211" x="983.5" y="270.495">SELECT * FROM zones WHERE id = ?</text><polygon fill="#181818" points="976.5,304.01,966.5,308.01,976.5,312.01,972.5,308.01" style="stroke:#181818;stroke-width:1.0;"/><line style="stroke:#181818;stroke-width:1.0;stroke-dasharray:2.0,2.0;" x1="970.5" x2="1236" y1="308.01" y2="308.01"/><text fill="#000000" font-family="sans-serif" font-size="13" font-weight="bold" lengthAdjust="spacing" textLength="7" x="982.5" y="302.201">7</text><text fill="#000000" font-family="sans-serif" font-size="13" lengthAdjust="spacing" textLength="147" x="993.5" y="302.201">Database record (or null)</text><path d="M10,323.01 L73,323.01 L73,332.716 L63,342.716 L10,342.716 L10,323.01 " fill="#EEEEEE" style="stroke:#000000;stroke-width:1.5;"/><rect fill="none" height="417.1601" style="stroke:#000000;stroke-width:1.5;" width="1191" x="10" y="323.01"/><text fill="#000000" font-family="sans-serif" font-size="13" font-weight="bold" lengthAdjust="spacing" textLength="18" x="25" y="337.907">alt</text><text fill="#000000" font-family="sans-serif" font-size="11" font-weight="bold" lengthAdjust="spacing" textLength="113" x="88" y="336.7689">[If record not found]</text><polygon fill="#181818" points="810.5,362.4221,800.5,366.4221,810.5,370.4221,806.5,366.4221" style="stroke:#181818;stroke-width:1.0;"/><line style="stroke:#181818;stroke-width:1.0;stroke-dasharray:2.0,2.0;" x1="804.5" x2="964.5" y1="366.4221" y2="366.4221"/><text fill="#000000" font-family="sans-serif" font-size="13" font-weight="bold" lengthAdjust="spacing" textLength="7" x="816.5" y="360.6131">8</text><text fill="#000000" font-family="sans-serif" font-size="13" lengthAdjust="spacing" textLength="22" x="827.5" y="360.6131">null</text><polygon fill="#181818" points="579.5,394.1281,569.5,398.1281,579.5,402.1281,575.5,398.1281" style="stroke:#181818;stroke-width:1.0;"/><line style="stroke:#181818;stroke-width:1.0;stroke-dasharray:2.0,2.0;" x1="573.5" x2="798.5" y1="398.1281" y2="398.1281"/><text fill="#000000" font-family="sans-serif" font-size="13" font-weight="bold" lengthAdjust="spacing" textLength="7" x="585.5" y="392.3191">9</text><text fill="#000000" font-family="sans-serif" font-size="13" lengthAdjust="spacing" textLength="196" x="596.5" y="392.3191">throws ZoneNotFoundException</text><polygon fill="#181818" points="399.5,425.8341,389.5,429.8341,399.5,433.8341,395.5,429.8341" style="stroke:#181818;stroke-width:1.0;"/><line style="stroke:#181818;stroke-width:1.0;stroke-dasharray:2.0,2.0;" x1="393.5" x2="567.5" y1="429.8341" y2="429.8341"/><text fill="#000000" font-family="sans-serif" font-size="13" font-weight="bold" lengthAdjust="spacing" textLength="14" x="405.5" y="424.0251">10</text><text fill="#000000" font-family="sans-serif" font-size="13" lengthAdjust="spacing" textLength="89" x="423.5" y="424.0251">404 Not Found</text><polygon fill="#181818" points="246.5,457.5401,236.5,461.5401,246.5,465.5401,242.5,461.5401" style="stroke:#181818;stroke-width:1.0;"/><line style="stroke:#181818;stroke-width:1.0;stroke-dasharray:2.0,2.0;" x1="240.5" x2="387.5" y1="461.5401" y2="461.5401"/><text fill="#000000" font-family="sans-serif" font-size="13" font-weight="bold" lengthAdjust="spacing" textLength="14" x="252.5" y="455.7311">11</text><text fill="#000000" font-family="sans-serif" font-size="13" lengthAdjust="spacing" textLength="77" x="270.5" y="455.7311">Throws error</text><polygon fill="#181818" points="49.5,489.2461,39.5,493.2461,49.5,497.2461,45.5,493.2461" style="stroke:#181818;stroke-width:1.0;"/><line style="stroke:#181818;stroke-width:1.0;" x1="43.5" x2="234.5" y1="493.2461" y2="493.2461"/><text fill="#000000" font-family="sans-serif" font-size="13" font-weight="bold" lengthAdjust="spacing" textLength="14" x="55.5" y="487.4371">12</text><text fill="#000000" font-family="sans-serif" font-size="13" lengthAdjust="spacing" textLength="155" x="73.5" y="487.4371">Displays "Zone not found"</text><line style="stroke:#000000;stroke-width:1.0;stroke-dasharray:2.0,2.0;" x1="10" x2="1201" y1="502.2461" y2="502.2461"/><text fill="#000000" font-family="sans-serif" font-size="11" font-weight="bold" lengthAdjust="spacing" textLength="91" x="15" y="514.005">[If record found]</text><polygon fill="#181818" points="1127.5,537.934,1137.5,541.934,1127.5,545.934,1131.5,541.934" style="stroke:#181818;stroke-width:1.0;"/><line style="stroke:#181818;stroke-width:1.0;" x1="965.5" x2="1133.5" y1="541.934" y2="541.934"/><text fill="#000000" font-family="sans-serif" font-size="13" font-weight="bold" lengthAdjust="spacing" textLength="14" x="972.5" y="536.125">13</text><text fill="#000000" font-family="sans-serif" font-size="13" lengthAdjust="spacing" textLength="132" x="990.5" y="536.125">reconstitute(id, name)</text><polygon fill="#181818" points="976.5,569.6401,966.5,573.6401,976.5,577.6401,972.5,573.6401" style="stroke:#181818;stroke-width:1.0;"/><line style="stroke:#181818;stroke-width:1.0;stroke-dasharray:2.0,2.0;" x1="970.5" x2="1138.5" y1="573.6401" y2="573.6401"/><text fill="#000000" font-family="sans-serif" font-size="13" font-weight="bold" lengthAdjust="spacing" textLength="14" x="982.5" y="567.831">14</text><text fill="#000000" font-family="sans-serif" font-size="13" lengthAdjust="spacing" textLength="85" x="1000.5" y="567.831">Returns Entity</text><polygon fill="#181818" points="810.5,601.3461,800.5,605.3461,810.5,609.3461,806.5,605.3461" style="stroke:#181818;stroke-width:1.0;"/><line style="stroke:#181818;stroke-width:1.0;stroke-dasharray:2.0,2.0;" x1="804.5" x2="964.5" y1="605.3461" y2="605.3461"/><text fill="#000000" font-family="sans-serif" font-size="13" font-weight="bold" lengthAdjust="spacing" textLength="14" x="816.5" y="599.5371">15</text><text fill="#000000" font-family="sans-serif" font-size="13" lengthAdjust="spacing" textLength="68" x="834.5" y="599.5371">Zone Entity</text><polygon fill="#181818" points="579.5,633.0521,569.5,637.0521,579.5,641.0521,575.5,637.0521" style="stroke:#181818;stroke-width:1.0;"/><line style="stroke:#181818;stroke-width:1.0;stroke-dasharray:2.0,2.0;" x1="573.5" x2="798.5" y1="637.0521" y2="637.0521"/><text fill="#000000" font-family="sans-serif" font-size="13" font-weight="bold" lengthAdjust="spacing" textLength="14" x="585.5" y="631.2431">16</text><text fill="#000000" font-family="sans-serif" font-size="13" lengthAdjust="spacing" textLength="68" x="603.5" y="631.2431">Zone Entity</text><polygon fill="#181818" points="399.5,664.7581,389.5,668.7581,399.5,672.7581,395.5,668.7581" style="stroke:#181818;stroke-width:1.0;"/><line style="stroke:#181818;stroke-width:1.0;" x1="393.5" x2="567.5" y1="668.7581" y2="668.7581"/><text fill="#000000" font-family="sans-serif" font-size="13" font-weight="bold" lengthAdjust="spacing" textLength="14" x="405.5" y="662.9491">17</text><text fill="#000000" font-family="sans-serif" font-size="13" lengthAdjust="spacing" textLength="138" x="423.5" y="662.9491">200 OK (ZoneResource)</text><polygon fill="#181818" points="246.5,696.4641,236.5,700.4641,246.5,704.4641,242.5,700.4641" style="stroke:#181818;stroke-width:1.0;"/><line style="stroke:#181818;stroke-width:1.0;stroke-dasharray:2.0,2.0;" x1="240.5" x2="387.5" y1="700.4641" y2="700.4641"/><text fill="#000000" font-family="sans-serif" font-size="13" font-weight="bold" lengthAdjust="spacing" textLength="14" x="252.5" y="694.6551">18</text><text fill="#000000" font-family="sans-serif" font-size="13" lengthAdjust="spacing" textLength="111" x="270.5" y="694.6551">Returns JSON data</text><polygon fill="#181818" points="49.5,728.1701,39.5,732.1701,49.5,736.1701,45.5,732.1701" style="stroke:#181818;stroke-width:1.0;"/><line style="stroke:#181818;stroke-width:1.0;" x1="43.5" x2="234.5" y1="732.1701" y2="732.1701"/><text fill="#000000" font-family="sans-serif" font-size="13" font-weight="bold" lengthAdjust="spacing" textLength="14" x="55.5" y="726.3611">19</text><text fill="#000000" font-family="sans-serif" font-size="13" lengthAdjust="spacing" textLength="123" x="73.5" y="726.3611">Displays zone details</text><!--SRC=[VLJRRXCn47ttLupob23QHAXFbIWYoQO4IYEI52J4YxkU5AEDlTZUa83uTyQNlKKg-xJZSyvSpdYNLqwhQl-8Xl7SQGCFbbvBRfpCPScLWy7d2c6czwLMgDmtDVnABtDqN1QNXmf70-0M7fPzpTkZr1PcXMmb6pG7cUFb3nib4UpBPbeveui2JHAr1qdKn7rXIawgMtITQb6LWhvaZQMsaaO-aIehzC-Asl7I5eXg7_UbYs3LAVMOeaXE0HFSyKTkaLhxT2STmdmQyFcKCMynNDoGQN0Dz_mWdxX32qx3-3Vbi-DhAHY1H8ac4Uq9tVIq54CfHYmTUhYnWoYtsHR6l9GfoHyf_h8EWUZ91-BY4VFAOKXNdnB1ZqheJYhHL0jdXCsdX6ooksosXHUmMAy-GYW4NzvbwmoaWDVmXX7heaqqhrqmc6iZO4WNJ5L5CMAC5mwMknfGsi5ELqeme2UMx3NiLG5hkZqVttqt-fS5lv5xxHO-MNRCiNHIgw3iUj6rzcfo1QI0HLE_DhZUqJQcHcEq2OIudB176bBQik0d2mDVknrbmB2WqTiXpmUygMyB9V4KPPrqSIilGV4zZWAv9dLyNQEhZBAGALASdlCijDEXF6lTER5_QngZNaqciFe0m_YHM5sPFBLuRbZTt_lDwXxyf_0Vr_mb0X7-9vQX4ly0]--></g></svg>